<?xml version="1.0" encoding="utf-8"?>
<svg viewBox="339.525 173.707 28 22" xmlns="http://www.w3.org/2000/svg">
  <path d="M 342.325 173.707 C 341.647 173.703 340.991 173.948 340.481 174.396 C 339.971 174.843 339.643 175.462 339.558 176.135 L 353.525 184.707 L 367.492 176.135 C 367.408 175.462 367.08 174.843 366.57 174.396 C 366.06 173.948 365.404 173.703 364.725 173.707 L 342.325 173.707 Z M 339.525 178.866 L 339.525 192.957 C 339.525 194.477 340.778 195.707 342.325 195.707 L 364.725 195.707 C 366.272 195.707 367.525 194.477 367.525 192.957 L 367.525 178.866 L 354.266 187.003 C 354.043 187.139 353.787 187.211 353.525 187.211 C 353.264 187.211 353.008 187.139 352.784 187.003 L 339.525 178.867 L 339.525 178.866 Z" style="fill: rgb(255, 255, 255);" transform="matrix(1, 0, 0, 1, -1.7763568394002505e-15, 0)"/>
</svg>